<svg width="25" height="24" viewBox="0 0 25 24" fill="none" xmlns="http://www.w3.org/2000/svg">
<path d="M12.5 2C10.5222 2 8.58879 2.58649 6.9443 3.6853C5.29981 4.78412 4.01809 6.3459 3.26121 8.17317C2.50433 10.0004 2.3063 12.0111 2.69215 13.9509C3.078 15.8907 4.03041 17.6725 5.42894 19.0711C6.82746 20.4696 8.60929 21.422 10.5491 21.8079C12.4889 22.1937 14.4996 21.9957 16.3268 21.2388C18.1541 20.4819 19.7159 19.2002 20.8147 17.5557C21.9135 15.9112 22.5 13.9778 22.5 12C22.4971 9.34873 21.4426 6.80688 19.5679 4.93215C17.6931 3.05742 15.1513 2.00291 12.5 2ZM12.5 7C13.0933 7 13.6734 7.17595 14.1667 7.50559C14.6601 7.83524 15.0446 8.30377 15.2716 8.85195C15.4987 9.40013 15.5581 10.0033 15.4424 10.5853C15.3266 11.1672 15.0409 11.7018 14.6213 12.1213C14.2018 12.5409 13.6672 12.8266 13.0853 12.9424C12.5033 13.0581 11.9001 12.9987 11.352 12.7716C10.8038 12.5446 10.3352 12.1601 10.0056 11.6667C9.67595 11.1734 9.5 10.5933 9.5 10C9.5 9.20435 9.81607 8.44129 10.3787 7.87868C10.9413 7.31607 11.7044 7 12.5 7ZM12.5 20C10.7392 20.0019 9.01699 19.4843 7.549 18.512C7.66502 17.5451 8.13092 16.6541 8.85879 16.0071C9.58666 15.3601 10.5262 15.0019 11.5 15H13.5C14.4739 15.0019 15.4134 15.3601 16.1412 16.0071C16.8691 16.6541 17.335 17.5451 17.451 18.512C15.983 19.4843 14.2608 20.0019 12.5 20Z" fill="#0B0B0B"/>
</svg>
