<svg width="287" height="267" viewBox="0 0 287 267" fill="none" xmlns="http://www.w3.org/2000/svg">
<g clip-path="url(#clip0_1296_4178)">
<path fill-rule="evenodd" clip-rule="evenodd" d="M109.61 130.878C102.941 128.651 94.5485 126.965 85.8149 126.736C69.8622 126.322 52.8333 130.338 40.9961 142.337C45.7681 151.726 57.9413 157.55 72.9969 157.211C86.9769 156.913 102.984 151.253 116.556 138.672C114.019 136.173 111.727 133.59 109.61 130.878ZM83.4159 138.929C82.9411 138.392 82.2991 137.894 81.5114 137.4C75.8215 134.069 62.3937 132.757 54.2867 142.705C56.5712 152.156 72.3741 152.954 83.4159 138.929Z" fill="white"/>
<path fill-rule="evenodd" clip-rule="evenodd" d="M128.337 23.2134C113.424 31.2683 102.556 50.1368 100.278 71.5693C98.0191 92.7746 104.051 116.079 121.755 133.581C122.888 132.383 124.056 131.206 125.224 130.03C131.918 119.434 139.002 101.828 141.823 83.4095C145.246 61.0636 142.645 37.8975 128.337 23.2134ZM127.192 36.8845C141.712 53.5348 129.273 81.8841 120.756 88.2338C102.678 68.3977 110.839 40.6146 127.192 36.8845Z" fill="white"/>
<path d="M106.358 163.678C103.286 168.194 102.055 171.526 101.824 173.339C101.597 175.003 101.802 175.115 102.07 175.263C102.099 175.279 102.129 175.296 102.16 175.315C102.502 175.53 103.8 175.819 105.618 175.432C107.38 175.058 109.494 174.046 111.262 172.673L111.284 172.639C112.338 171.811 113.384 170.947 114.418 170.093L114.419 170.092C114.676 169.88 114.933 169.668 115.189 169.457C112.287 167.541 109.702 164.965 107.668 161.97C107.442 162.251 107.22 162.546 106.994 162.846C106.786 163.123 106.576 163.403 106.358 163.678Z" fill="white"/>
<path d="M118.494 148.288C116.42 150.757 114.436 153.235 112.465 155.769C114.452 159.449 117.866 162.832 120.902 164.307C123.241 162.099 125.568 159.836 127.847 157.496C124.277 155.351 120.695 152.388 118.494 148.288Z" fill="white"/>
<path d="M130.576 134.963C128.185 137.329 125.897 139.759 123.733 142.22L123.845 142.194C124.87 146.417 128.846 149.818 133.025 152.058C135.562 149.306 138.121 146.521 140.667 143.679C139.153 142.061 137.146 140.087 135.169 138.369C133.594 136.999 131.822 135.792 130.576 134.963Z" fill="white"/>
<path d="M146.426 126.436C145.672 125.963 144.79 125.696 143.736 125.702C142.099 125.725 139.852 126.416 137.191 128.756C137.011 128.929 136.827 129.088 136.644 129.248C136.46 129.407 136.277 129.566 136.096 129.739C137.368 130.68 138.596 131.689 139.918 132.853C141.998 134.635 143.958 136.532 145.6 138.327C145.66 138.269 145.706 138.214 145.753 138.16C145.799 138.105 145.845 138.051 145.905 137.993C149.911 133.585 149.258 129.453 147.427 127.35C147.218 127.075 146.965 126.869 146.713 126.663C146.661 126.631 146.615 126.59 146.569 126.549C146.523 126.509 146.477 126.468 146.426 126.436Z" fill="white"/>
<path fill-rule="evenodd" clip-rule="evenodd" d="M185.247 109.161L185.286 109.149L185.312 109.26C185.503 110.096 185.555 112.372 184.547 115.653L184.525 115.687C183.314 119.748 181.916 123.118 180.351 126.146C176.488 129.64 173.203 133.355 170.166 137.511C171.689 131.355 173.936 125.415 177.57 118.101C179.247 114.667 181.064 112.227 182.639 110.781C183.942 109.582 184.907 109.271 185.247 109.161ZM205.18 121.868C205.304 121.898 205.407 121.962 205.51 122.027C205.612 122.091 205.681 122.134 205.762 122.233C206.395 122.821 206.716 123.451 206.542 124.87C206.368 126.288 205.43 128.468 203.112 131.022C194.687 140.085 187.356 142.272 178.054 145.045C176.495 145.51 174.882 145.991 173.198 146.524C173.201 146.493 173.201 146.447 173.201 146.396C173.201 146.302 173.201 146.189 173.22 146.108C178.806 137.204 184.495 131.179 194.204 124.528L194.239 124.549L194.26 124.515C199.499 120.881 203.428 121.007 205.18 121.868ZM213.572 138.921C214.391 138.91 215.012 139.061 215.547 139.349C216.061 139.671 216.523 140.152 216.967 140.812C217.869 142.19 218.538 144.471 218.539 146.905C218.517 151.807 216.217 156.616 212.1 157.852C208.096 159.062 202.219 159.91 196.389 160.453C194.574 160.297 192.76 160.179 190.984 160.064C186.378 159.766 182.019 159.483 178.513 158.593L178.458 158.605L178.423 158.584C177.836 158.454 177.262 158.38 176.701 158.362C176.728 157.33 177.022 156.177 177.645 154.803C177.739 154.743 177.856 154.668 177.995 154.579C179.029 153.917 181.28 152.475 184.385 150.678C190.234 148.811 195.959 146.532 201.769 142.064C206.452 140.229 210.791 138.942 213.572 138.921ZM208.081 170.269C208.638 170.523 209.117 170.824 209.597 171.124C210.992 172.095 212.023 173.267 212.766 174.974C215.203 180.751 214.246 183.873 211.517 186.17C208.8 188.522 203.342 189.919 196.2 188.827L196.179 188.861C186.277 187.375 175.838 179.442 172.355 168.713C172.362 168.702 172.366 168.688 172.37 168.67C172.379 168.633 172.392 168.578 172.45 168.486C172.609 168.157 173.086 167.549 173.734 167.048C174.952 166.095 176.77 165.708 176.804 165.729C181.581 166.899 186.748 167.19 191.672 167.467C194.339 167.617 196.936 167.763 199.359 168.043C202.804 168.486 205.829 169.142 208.081 170.269ZM176.804 165.729L176.736 165.686L176.826 165.695L176.804 165.729ZM153.222 155.087C156.798 150.983 161.448 148.746 166.017 148.462C166.131 148.964 166.302 149.452 166.541 149.984C167.293 151.601 168.735 152.649 170.358 153.333C169.557 155.98 169.437 158.53 169.827 160.875C169.595 161.016 169.342 161.191 169.123 161.388C167.862 162.41 166.762 163.63 165.976 165.188C165.219 166.623 164.744 168.52 165.268 170.424C162.573 169.927 159.915 170.741 158.233 171.976C157.551 172.455 156.971 172.999 156.482 173.551L156.105 173.314C154.521 172.416 152.768 172.319 151.251 172.608C150.436 172.765 149.669 172.999 148.927 173.345C147.162 167.561 148.515 160.535 153.222 155.087ZM164.236 177.699C166.334 178.92 168.449 179.961 170.53 180.98C175.742 188.115 183.375 193.142 191.432 195.286C191.411 195.32 191.445 195.341 191.445 195.341C193.406 199.292 193.572 202.069 193.098 203.967C192.589 205.843 191.425 207.165 189.448 208.263C185.48 210.404 178.392 210.443 173.506 208.189C170.118 206.589 167.704 204.884 165.95 203.115C165.379 196.266 163.937 189.587 161.339 182.468C161.431 181.333 161.468 180.21 161.504 179.087C161.491 179.032 161.521 178.907 161.586 178.805C161.792 178.552 162.14 178.15 162.491 177.893L162.568 177.835L162.63 177.788L162.631 177.787C163.235 177.326 163.386 177.211 164.236 177.699ZM150.276 181.541C150.869 180.672 152.027 179.967 152.494 179.831L152.533 179.998L152.627 180.152C157.557 191.693 159.08 200.905 159.031 212.09C159.02 213.325 158.122 214.909 155.977 216.427C153.797 217.923 150.645 219.143 147.606 219.575C144.588 219.973 141.795 219.557 140.301 218.667C138.807 217.778 138.101 217.001 138.401 214.087C139.631 201.4 143.123 191.802 150.276 181.541ZM141.529 177.288L141.537 177.282L141.943 176.975L142.454 176.587C142.536 176.686 142.561 176.797 142.587 176.908L142.354 177.526C141.285 180.365 140.228 183.17 139.1 185.889C138.034 187.893 137.092 189.927 136.253 192.026C134.387 195.533 132.179 198.824 129.354 201.73C127.358 203.77 124.739 203.989 124.238 203.722L124.234 203.72C123.974 203.605 123.749 203.505 123.559 202.294C123.39 201.042 123.629 198.759 124.882 195.392C127.787 187.698 134.405 182.685 141.529 177.288ZM177.078 216.874C179.49 217.289 181.928 217.435 184.367 217.199C186.215 239.739 179.906 260.599 172.193 274.947L165.771 271.491C173.015 258.042 179.073 238.266 177.078 216.874Z" fill="white"/>
<path d="M158.74 100.036L151.472 100.058C151.524 106.821 149.903 113.058 147.351 118.95C148.709 119.373 149.972 120.022 151.072 120.855C151.748 121.375 152.382 121.963 152.938 122.598L153.425 123.19C156.587 116.249 158.82 108.581 158.74 100.036Z" fill="white"/>
</g>
<defs>
<clipPath id="clip0_1296_4178">
<rect x="110.827" y="0.822021" width="207" height="207" transform="rotate(32.1019 110.827 0.822021)" fill="white"/>
</clipPath>
</defs>
</svg>
