<svg width="20" height="20" viewBox="0 0 20 20" fill="none" xmlns="http://www.w3.org/2000/svg">
<path d="M15.7015 11.6655C15.8923 11.6655 16.0779 11.6065 16.2302 11.4974C16.3824 11.3882 16.4931 11.2349 16.5454 11.0606L18.2997 5.22797C18.3369 5.10397 18.3433 4.97346 18.3184 4.84672C18.2935 4.71997 18.2379 4.60045 18.1561 4.49756C18.0743 4.39466 17.9685 4.3112 17.847 4.25375C17.7255 4.19629 17.5916 4.1664 17.4559 4.16644H5.85078L5.32885 2.2875C5.27946 2.10959 5.16946 1.95221 5.01602 1.83992C4.86258 1.72763 4.67432 1.66674 4.48062 1.66675H2.54381C2.31116 1.66675 2.08805 1.75453 1.92355 1.9108C1.75904 2.06706 1.66663 2.27899 1.66663 2.49998C1.66663 2.72096 1.75904 2.9329 1.92355 3.08916C2.08805 3.24542 2.31116 3.33321 2.54381 3.33321H3.80519L4.3315 5.21214V5.22047V5.22797L6.08586 11.0606L6.74024 13.5486C6.30703 13.7311 5.93373 14.0212 5.65975 14.3885C5.38577 14.7558 5.22128 15.1865 5.18366 15.6353C5.14603 16.084 5.23666 16.534 5.44598 16.9379C5.6553 17.3417 5.97554 17.6844 6.37288 17.9297C6.77022 18.175 7.22992 18.3138 7.70344 18.3315C8.17695 18.3492 8.64671 18.2451 9.06312 18.0302C9.47952 17.8153 9.82711 17.4976 10.0692 17.1106C10.3113 16.7237 10.4388 16.2818 10.4384 15.8316C10.4355 15.5471 10.3809 15.2653 10.277 14.9984H12.3542C12.2503 15.2653 12.1957 15.5471 12.1928 15.8316C12.1928 16.326 12.3471 16.8093 12.6363 17.2204C12.9254 17.6315 13.3364 17.9519 13.8173 18.1411C14.2981 18.3302 14.8273 18.3797 15.3377 18.2833C15.8482 18.1868 16.3171 17.9488 16.6851 17.5992C17.0531 17.2496 17.3038 16.8042 17.4053 16.3193C17.5069 15.8344 17.4547 15.3318 17.2556 14.8751C17.0564 14.4183 16.7191 14.0279 16.2863 13.7532C15.8536 13.4786 15.3448 13.332 14.8243 13.332H8.49109L8.0525 11.6655H15.7015ZM8.68407 15.8316C8.68407 15.9964 8.63262 16.1575 8.53624 16.2946C8.43985 16.4316 8.30286 16.5384 8.14257 16.6014C7.98229 16.6645 7.80592 16.681 7.63576 16.6489C7.4656 16.6167 7.30931 16.5374 7.18663 16.4208C7.06395 16.3043 6.98041 16.1558 6.94656 15.9942C6.91272 15.8326 6.93009 15.665 6.99648 15.5128C7.06287 15.3605 7.1753 15.2304 7.31955 15.1388C7.46381 15.0473 7.6334 14.9984 7.80689 14.9984C8.03953 14.9984 8.26265 15.0862 8.42715 15.2425C8.59165 15.3987 8.68407 15.6107 8.68407 15.8316ZM14.8243 16.6649C14.6508 16.6649 14.4812 16.616 14.337 16.5244C14.1927 16.4329 14.0803 16.3028 14.0139 16.1505C13.9475 15.9983 13.9302 15.8307 13.964 15.6691C13.9979 15.5075 14.0814 15.359 14.2041 15.2425C14.3267 15.1259 14.483 15.0466 14.6532 15.0144C14.8234 14.9823 14.9997 14.9988 15.16 15.0618C15.3203 15.1249 15.4573 15.2317 15.5537 15.3687C15.6501 15.5057 15.7015 15.6668 15.7015 15.8316C15.7015 16.0526 15.6091 16.2646 15.4446 16.4208C15.2801 16.5771 15.057 16.6649 14.8243 16.6649Z" fill="#0B0B0B"/>
<path d="M15.7015 11.6655C15.8923 11.6655 16.0779 11.6065 16.2302 11.4974C16.3824 11.3882 16.4931 11.2349 16.5454 11.0606L18.2997 5.22797C18.3369 5.10397 18.3433 4.97346 18.3184 4.84672C18.2935 4.71997 18.2379 4.60045 18.1561 4.49756C18.0743 4.39466 17.9685 4.3112 17.847 4.25375C17.7255 4.19629 17.5916 4.1664 17.4559 4.16644H5.85078L5.32885 2.2875C5.27946 2.10959 5.16946 1.95221 5.01602 1.83992C4.86258 1.72763 4.67432 1.66674 4.48062 1.66675H2.54381C2.31116 1.66675 2.08805 1.75453 1.92355 1.9108C1.75904 2.06706 1.66663 2.27899 1.66663 2.49998C1.66663 2.72096 1.75904 2.9329 1.92355 3.08916C2.08805 3.24542 2.31116 3.33321 2.54381 3.33321H3.80519L4.3315 5.21214V5.22047V5.22797L6.08586 11.0606L6.74024 13.5486C6.30703 13.7311 5.93373 14.0212 5.65975 14.3885C5.38577 14.7558 5.22128 15.1865 5.18366 15.6353C5.14603 16.084 5.23666 16.534 5.44598 16.9379C5.6553 17.3417 5.97554 17.6844 6.37288 17.9297C6.77022 18.175 7.22992 18.3138 7.70344 18.3315C8.17695 18.3492 8.64671 18.2451 9.06312 18.0302C9.47952 17.8153 9.82711 17.4976 10.0692 17.1106C10.3113 16.7237 10.4388 16.2818 10.4384 15.8316C10.4355 15.5471 10.3809 15.2653 10.277 14.9984H12.3542C12.2503 15.2653 12.1957 15.5471 12.1928 15.8316C12.1928 16.326 12.3471 16.8093 12.6363 17.2204C12.9254 17.6315 13.3364 17.9519 13.8173 18.1411C14.2981 18.3302 14.8273 18.3797 15.3377 18.2833C15.8482 18.1868 16.3171 17.9488 16.6851 17.5992C17.0531 17.2496 17.3038 16.8042 17.4053 16.3193C17.5069 15.8344 17.4547 15.3318 17.2556 14.8751C17.0564 14.4183 16.7191 14.0279 16.2863 13.7532C15.8536 13.4786 15.3448 13.332 14.8243 13.332H8.49109L8.0525 11.6655H15.7015ZM8.68407 15.8316C8.68407 15.9964 8.63262 16.1575 8.53624 16.2946C8.43985 16.4316 8.30286 16.5384 8.14257 16.6014C7.98229 16.6645 7.80592 16.681 7.63576 16.6489C7.4656 16.6167 7.30931 16.5374 7.18663 16.4208C7.06395 16.3043 6.98041 16.1558 6.94656 15.9942C6.91272 15.8326 6.93009 15.665 6.99648 15.5128C7.06287 15.3605 7.1753 15.2304 7.31955 15.1388C7.46381 15.0473 7.6334 14.9984 7.80689 14.9984C8.03953 14.9984 8.26265 15.0862 8.42715 15.2425C8.59165 15.3987 8.68407 15.6107 8.68407 15.8316ZM14.8243 16.6649C14.6508 16.6649 14.4812 16.616 14.337 16.5244C14.1927 16.4329 14.0803 16.3028 14.0139 16.1505C13.9475 15.9983 13.9302 15.8307 13.964 15.6691C13.9979 15.5075 14.0814 15.359 14.2041 15.2425C14.3267 15.1259 14.483 15.0466 14.6532 15.0144C14.8234 14.9823 14.9997 14.9988 15.16 15.0618C15.3203 15.1249 15.4573 15.2317 15.5537 15.3687C15.6501 15.5057 15.7015 15.6668 15.7015 15.8316C15.7015 16.0526 15.6091 16.2646 15.4446 16.4208C15.2801 16.5771 15.057 16.6649 14.8243 16.6649Z" fill="black" fill-opacity="0.2"/>
<path d="M15.7015 11.6655C15.8923 11.6655 16.0779 11.6065 16.2302 11.4974C16.3824 11.3882 16.4931 11.2349 16.5454 11.0606L18.2997 5.22797C18.3369 5.10397 18.3433 4.97346 18.3184 4.84672C18.2935 4.71997 18.2379 4.60045 18.1561 4.49756C18.0743 4.39466 17.9685 4.3112 17.847 4.25375C17.7255 4.19629 17.5916 4.1664 17.4559 4.16644H5.85078L5.32885 2.2875C5.27946 2.10959 5.16946 1.95221 5.01602 1.83992C4.86258 1.72763 4.67432 1.66674 4.48062 1.66675H2.54381C2.31116 1.66675 2.08805 1.75453 1.92355 1.9108C1.75904 2.06706 1.66663 2.27899 1.66663 2.49998C1.66663 2.72096 1.75904 2.9329 1.92355 3.08916C2.08805 3.24542 2.31116 3.33321 2.54381 3.33321H3.80519L4.3315 5.21214V5.22047V5.22797L6.08586 11.0606L6.74024 13.5486C6.30703 13.7311 5.93373 14.0212 5.65975 14.3885C5.38577 14.7558 5.22128 15.1865 5.18366 15.6353C5.14603 16.084 5.23666 16.534 5.44598 16.9379C5.6553 17.3417 5.97554 17.6844 6.37288 17.9297C6.77022 18.175 7.22992 18.3138 7.70344 18.3315C8.17695 18.3492 8.64671 18.2451 9.06312 18.0302C9.47952 17.8153 9.82711 17.4976 10.0692 17.1106C10.3113 16.7237 10.4388 16.2818 10.4384 15.8316C10.4355 15.5471 10.3809 15.2653 10.277 14.9984H12.3542C12.2503 15.2653 12.1957 15.5471 12.1928 15.8316C12.1928 16.326 12.3471 16.8093 12.6363 17.2204C12.9254 17.6315 13.3364 17.9519 13.8173 18.1411C14.2981 18.3302 14.8273 18.3797 15.3377 18.2833C15.8482 18.1868 16.3171 17.9488 16.6851 17.5992C17.0531 17.2496 17.3038 16.8042 17.4053 16.3193C17.5069 15.8344 17.4547 15.3318 17.2556 14.8751C17.0564 14.4183 16.7191 14.0279 16.2863 13.7532C15.8536 13.4786 15.3448 13.332 14.8243 13.332H8.49109L8.0525 11.6655H15.7015ZM8.68407 15.8316C8.68407 15.9964 8.63262 16.1575 8.53624 16.2946C8.43985 16.4316 8.30286 16.5384 8.14257 16.6014C7.98229 16.6645 7.80592 16.681 7.63576 16.6489C7.4656 16.6167 7.30931 16.5374 7.18663 16.4208C7.06395 16.3043 6.98041 16.1558 6.94656 15.9942C6.91272 15.8326 6.93009 15.665 6.99648 15.5128C7.06287 15.3605 7.1753 15.2304 7.31955 15.1388C7.46381 15.0473 7.6334 14.9984 7.80689 14.9984C8.03953 14.9984 8.26265 15.0862 8.42715 15.2425C8.59165 15.3987 8.68407 15.6107 8.68407 15.8316ZM14.8243 16.6649C14.6508 16.6649 14.4812 16.616 14.337 16.5244C14.1927 16.4329 14.0803 16.3028 14.0139 16.1505C13.9475 15.9983 13.9302 15.8307 13.964 15.6691C13.9979 15.5075 14.0814 15.359 14.2041 15.2425C14.3267 15.1259 14.483 15.0466 14.6532 15.0144C14.8234 14.9823 14.9997 14.9988 15.16 15.0618C15.3203 15.1249 15.4573 15.2317 15.5537 15.3687C15.6501 15.5057 15.7015 15.6668 15.7015 15.8316C15.7015 16.0526 15.6091 16.2646 15.4446 16.4208C15.2801 16.5771 15.057 16.6649 14.8243 16.6649Z" fill="black" fill-opacity="0.2"/>
<path d="M15.7015 11.6655C15.8923 11.6655 16.0779 11.6065 16.2302 11.4974C16.3824 11.3882 16.4931 11.2349 16.5454 11.0606L18.2997 5.22797C18.3369 5.10397 18.3433 4.97346 18.3184 4.84672C18.2935 4.71997 18.2379 4.60045 18.1561 4.49756C18.0743 4.39466 17.9685 4.3112 17.847 4.25375C17.7255 4.19629 17.5916 4.1664 17.4559 4.16644H5.85078L5.32885 2.2875C5.27946 2.10959 5.16946 1.95221 5.01602 1.83992C4.86258 1.72763 4.67432 1.66674 4.48062 1.66675H2.54381C2.31116 1.66675 2.08805 1.75453 1.92355 1.9108C1.75904 2.06706 1.66663 2.27899 1.66663 2.49998C1.66663 2.72096 1.75904 2.9329 1.92355 3.08916C2.08805 3.24542 2.31116 3.33321 2.54381 3.33321H3.80519L4.3315 5.21214V5.22047V5.22797L6.08586 11.0606L6.74024 13.5486C6.30703 13.7311 5.93373 14.0212 5.65975 14.3885C5.38577 14.7558 5.22128 15.1865 5.18366 15.6353C5.14603 16.084 5.23666 16.534 5.44598 16.9379C5.6553 17.3417 5.97554 17.6844 6.37288 17.9297C6.77022 18.175 7.22992 18.3138 7.70344 18.3315C8.17695 18.3492 8.64671 18.2451 9.06312 18.0302C9.47952 17.8153 9.82711 17.4976 10.0692 17.1106C10.3113 16.7237 10.4388 16.2818 10.4384 15.8316C10.4355 15.5471 10.3809 15.2653 10.277 14.9984H12.3542C12.2503 15.2653 12.1957 15.5471 12.1928 15.8316C12.1928 16.326 12.3471 16.8093 12.6363 17.2204C12.9254 17.6315 13.3364 17.9519 13.8173 18.1411C14.2981 18.3302 14.8273 18.3797 15.3377 18.2833C15.8482 18.1868 16.3171 17.9488 16.6851 17.5992C17.0531 17.2496 17.3038 16.8042 17.4053 16.3193C17.5069 15.8344 17.4547 15.3318 17.2556 14.8751C17.0564 14.4183 16.7191 14.0279 16.2863 13.7532C15.8536 13.4786 15.3448 13.332 14.8243 13.332H8.49109L8.0525 11.6655H15.7015ZM8.68407 15.8316C8.68407 15.9964 8.63262 16.1575 8.53624 16.2946C8.43985 16.4316 8.30286 16.5384 8.14257 16.6014C7.98229 16.6645 7.80592 16.681 7.63576 16.6489C7.4656 16.6167 7.30931 16.5374 7.18663 16.4208C7.06395 16.3043 6.98041 16.1558 6.94656 15.9942C6.91272 15.8326 6.93009 15.665 6.99648 15.5128C7.06287 15.3605 7.1753 15.2304 7.31955 15.1388C7.46381 15.0473 7.6334 14.9984 7.80689 14.9984C8.03953 14.9984 8.26265 15.0862 8.42715 15.2425C8.59165 15.3987 8.68407 15.6107 8.68407 15.8316ZM14.8243 16.6649C14.6508 16.6649 14.4812 16.616 14.337 16.5244C14.1927 16.4329 14.0803 16.3028 14.0139 16.1505C13.9475 15.9983 13.9302 15.8307 13.964 15.6691C13.9979 15.5075 14.0814 15.359 14.2041 15.2425C14.3267 15.1259 14.483 15.0466 14.6532 15.0144C14.8234 14.9823 14.9997 14.9988 15.16 15.0618C15.3203 15.1249 15.4573 15.2317 15.5537 15.3687C15.6501 15.5057 15.7015 15.6668 15.7015 15.8316C15.7015 16.0526 15.6091 16.2646 15.4446 16.4208C15.2801 16.5771 15.057 16.6649 14.8243 16.6649Z" fill="black" fill-opacity="0.2"/>
<path d="M15.7015 11.6655C15.8923 11.6655 16.0779 11.6065 16.2302 11.4974C16.3824 11.3882 16.4931 11.2349 16.5454 11.0606L18.2997 5.22797C18.3369 5.10397 18.3433 4.97346 18.3184 4.84672C18.2935 4.71997 18.2379 4.60045 18.1561 4.49756C18.0743 4.39466 17.9685 4.3112 17.847 4.25375C17.7255 4.19629 17.5916 4.1664 17.4559 4.16644H5.85078L5.32885 2.2875C5.27946 2.10959 5.16946 1.95221 5.01602 1.83992C4.86258 1.72763 4.67432 1.66674 4.48062 1.66675H2.54381C2.31116 1.66675 2.08805 1.75453 1.92355 1.9108C1.75904 2.06706 1.66663 2.27899 1.66663 2.49998C1.66663 2.72096 1.75904 2.9329 1.92355 3.08916C2.08805 3.24542 2.31116 3.33321 2.54381 3.33321H3.80519L4.3315 5.21214V5.22047V5.22797L6.08586 11.0606L6.74024 13.5486C6.30703 13.7311 5.93373 14.0212 5.65975 14.3885C5.38577 14.7558 5.22128 15.1865 5.18366 15.6353C5.14603 16.084 5.23666 16.534 5.44598 16.9379C5.6553 17.3417 5.97554 17.6844 6.37288 17.9297C6.77022 18.175 7.22992 18.3138 7.70344 18.3315C8.17695 18.3492 8.64671 18.2451 9.06312 18.0302C9.47952 17.8153 9.82711 17.4976 10.0692 17.1106C10.3113 16.7237 10.4388 16.2818 10.4384 15.8316C10.4355 15.5471 10.3809 15.2653 10.277 14.9984H12.3542C12.2503 15.2653 12.1957 15.5471 12.1928 15.8316C12.1928 16.326 12.3471 16.8093 12.6363 17.2204C12.9254 17.6315 13.3364 17.9519 13.8173 18.1411C14.2981 18.3302 14.8273 18.3797 15.3377 18.2833C15.8482 18.1868 16.3171 17.9488 16.6851 17.5992C17.0531 17.2496 17.3038 16.8042 17.4053 16.3193C17.5069 15.8344 17.4547 15.3318 17.2556 14.8751C17.0564 14.4183 16.7191 14.0279 16.2863 13.7532C15.8536 13.4786 15.3448 13.332 14.8243 13.332H8.49109L8.0525 11.6655H15.7015ZM8.68407 15.8316C8.68407 15.9964 8.63262 16.1575 8.53624 16.2946C8.43985 16.4316 8.30286 16.5384 8.14257 16.6014C7.98229 16.6645 7.80592 16.681 7.63576 16.6489C7.4656 16.6167 7.30931 16.5374 7.18663 16.4208C7.06395 16.3043 6.98041 16.1558 6.94656 15.9942C6.91272 15.8326 6.93009 15.665 6.99648 15.5128C7.06287 15.3605 7.1753 15.2304 7.31955 15.1388C7.46381 15.0473 7.6334 14.9984 7.80689 14.9984C8.03953 14.9984 8.26265 15.0862 8.42715 15.2425C8.59165 15.3987 8.68407 15.6107 8.68407 15.8316ZM14.8243 16.6649C14.6508 16.6649 14.4812 16.616 14.337 16.5244C14.1927 16.4329 14.0803 16.3028 14.0139 16.1505C13.9475 15.9983 13.9302 15.8307 13.964 15.6691C13.9979 15.5075 14.0814 15.359 14.2041 15.2425C14.3267 15.1259 14.483 15.0466 14.6532 15.0144C14.8234 14.9823 14.9997 14.9988 15.16 15.0618C15.3203 15.1249 15.4573 15.2317 15.5537 15.3687C15.6501 15.5057 15.7015 15.6668 15.7015 15.8316C15.7015 16.0526 15.6091 16.2646 15.4446 16.4208C15.2801 16.5771 15.057 16.6649 14.8243 16.6649Z" fill="black" fill-opacity="0.2"/>
<path d="M15.7015 11.6655C15.8923 11.6655 16.0779 11.6065 16.2302 11.4974C16.3824 11.3882 16.4931 11.2349 16.5454 11.0606L18.2997 5.22797C18.3369 5.10397 18.3433 4.97346 18.3184 4.84672C18.2935 4.71997 18.2379 4.60045 18.1561 4.49756C18.0743 4.39466 17.9685 4.3112 17.847 4.25375C17.7255 4.19629 17.5916 4.1664 17.4559 4.16644H5.85078L5.32885 2.2875C5.27946 2.10959 5.16946 1.95221 5.01602 1.83992C4.86258 1.72763 4.67432 1.66674 4.48062 1.66675H2.54381C2.31116 1.66675 2.08805 1.75453 1.92355 1.9108C1.75904 2.06706 1.66663 2.27899 1.66663 2.49998C1.66663 2.72096 1.75904 2.9329 1.92355 3.08916C2.08805 3.24542 2.31116 3.33321 2.54381 3.33321H3.80519L4.3315 5.21214V5.22047V5.22797L6.08586 11.0606L6.74024 13.5486C6.30703 13.7311 5.93373 14.0212 5.65975 14.3885C5.38577 14.7558 5.22128 15.1865 5.18366 15.6353C5.14603 16.084 5.23666 16.534 5.44598 16.9379C5.6553 17.3417 5.97554 17.6844 6.37288 17.9297C6.77022 18.175 7.22992 18.3138 7.70344 18.3315C8.17695 18.3492 8.64671 18.2451 9.06312 18.0302C9.47952 17.8153 9.82711 17.4976 10.0692 17.1106C10.3113 16.7237 10.4388 16.2818 10.4384 15.8316C10.4355 15.5471 10.3809 15.2653 10.277 14.9984H12.3542C12.2503 15.2653 12.1957 15.5471 12.1928 15.8316C12.1928 16.326 12.3471 16.8093 12.6363 17.2204C12.9254 17.6315 13.3364 17.9519 13.8173 18.1411C14.2981 18.3302 14.8273 18.3797 15.3377 18.2833C15.8482 18.1868 16.3171 17.9488 16.6851 17.5992C17.0531 17.2496 17.3038 16.8042 17.4053 16.3193C17.5069 15.8344 17.4547 15.3318 17.2556 14.8751C17.0564 14.4183 16.7191 14.0279 16.2863 13.7532C15.8536 13.4786 15.3448 13.332 14.8243 13.332H8.49109L8.0525 11.6655H15.7015ZM8.68407 15.8316C8.68407 15.9964 8.63262 16.1575 8.53624 16.2946C8.43985 16.4316 8.30286 16.5384 8.14257 16.6014C7.98229 16.6645 7.80592 16.681 7.63576 16.6489C7.4656 16.6167 7.30931 16.5374 7.18663 16.4208C7.06395 16.3043 6.98041 16.1558 6.94656 15.9942C6.91272 15.8326 6.93009 15.665 6.99648 15.5128C7.06287 15.3605 7.1753 15.2304 7.31955 15.1388C7.46381 15.0473 7.6334 14.9984 7.80689 14.9984C8.03953 14.9984 8.26265 15.0862 8.42715 15.2425C8.59165 15.3987 8.68407 15.6107 8.68407 15.8316ZM14.8243 16.6649C14.6508 16.6649 14.4812 16.616 14.337 16.5244C14.1927 16.4329 14.0803 16.3028 14.0139 16.1505C13.9475 15.9983 13.9302 15.8307 13.964 15.6691C13.9979 15.5075 14.0814 15.359 14.2041 15.2425C14.3267 15.1259 14.483 15.0466 14.6532 15.0144C14.8234 14.9823 14.9997 14.9988 15.16 15.0618C15.3203 15.1249 15.4573 15.2317 15.5537 15.3687C15.6501 15.5057 15.7015 15.6668 15.7015 15.8316C15.7015 16.0526 15.6091 16.2646 15.4446 16.4208C15.2801 16.5771 15.057 16.6649 14.8243 16.6649Z" fill="black" fill-opacity="0.2"/>
</svg>
