<svg width="9" height="21" viewBox="0 0 9 21" fill="none" xmlns="http://www.w3.org/2000/svg">
<path d="M1.47546 0.14209C1.47546 1.20209 2.0863 2.78495 2.70463 4.11352C3.49963 5.8278 4.44963 7.32352 5.5388 8.46495C6.35546 9.32066 7.34546 10.1421 8.14213 10.1421M8.14213 10.1421C7.34546 10.1421 6.35463 10.9635 5.5388 11.8192C4.44963 12.9621 3.49963 14.4578 2.70463 16.1692C2.0863 17.4992 1.47546 19.0849 1.47546 20.1421" fill="#1A1C1A"/>
<path d="M1.47546 0.14209C1.47546 1.20209 2.0863 2.78495 2.70463 4.11352C3.49963 5.8278 4.44963 7.32352 5.5388 8.46495C6.35546 9.32066 7.34546 10.1421 8.14213 10.1421C7.34546 10.1421 6.35463 10.9635 5.5388 11.8192C4.44963 12.9621 3.49963 14.4578 2.70463 16.1692C2.0863 17.4992 1.47546 19.0849 1.47546 20.1421" stroke="#1A1C1A" stroke-width="2"/>
</svg>
