<svg width="40" height="199" viewBox="0 0 40 199" fill="none" xmlns="http://www.w3.org/2000/svg">
<path d="M8.24185 115.249C8.01613 115.023 7.88934 114.717 7.88934 114.397C7.88934 114.078 8.01613 113.771 8.24185 113.545L22.2561 99.5311L8.24185 85.5168C8.12343 85.4065 8.02844 85.2734 7.96256 85.1256C7.89668 84.9777 7.86126 84.8181 7.8584 84.6563C7.85555 84.4944 7.88532 84.3336 7.94594 84.1836C8.00657 84.0335 8.0968 83.8971 8.21126 83.7827C8.32572 83.6682 8.46206 83.578 8.61214 83.5174C8.76223 83.4567 8.92299 83.427 9.08484 83.4298C9.24668 83.4327 9.40629 83.4681 9.55415 83.534C9.702 83.5999 9.83508 83.6948 9.94543 83.8133L24.8115 98.6793C25.0372 98.9053 25.164 99.2117 25.164 99.5311C25.164 99.8505 25.0372 100.157 24.8115 100.383L9.94543 115.249C9.71942 115.475 9.41306 115.601 9.09364 115.601C8.77422 115.601 8.46786 115.475 8.24185 115.249Z" fill="white"/>
<circle cx="-60.5" cy="99.5" r="99.5" fill="black" fill-opacity="0.32"/>
</svg>
