<svg width="42" height="199" viewBox="0 0 42 199" fill="none" xmlns="http://www.w3.org/2000/svg">
<path d="M31.7582 83.751C31.9839 83.977 32.1107 84.2834 32.1107 84.6028C32.1107 84.9222 31.9839 85.2286 31.7582 85.4546L17.7439 99.4689L31.7582 113.483C31.8766 113.594 31.9716 113.727 32.0375 113.874C32.1034 114.022 32.1388 114.182 32.1417 114.344C32.1445 114.506 32.1147 114.666 32.0541 114.816C31.9935 114.967 31.9033 115.103 31.7888 115.217C31.6743 115.332 31.538 115.422 31.3879 115.483C31.2378 115.543 31.0771 115.573 30.9152 115.57C30.7534 115.567 30.5938 115.532 30.4459 115.466C30.2981 115.4 30.165 115.305 30.0546 115.187L15.1886 100.321C14.9628 100.095 14.8361 99.7883 14.8361 99.4689C14.8361 99.1495 14.9628 98.8431 15.1886 98.6171L30.0546 83.751C30.2806 83.5253 30.587 83.3985 30.9064 83.3985C31.2258 83.3985 31.5322 83.5253 31.7582 83.751Z" fill="white"/>
<circle cx="102.5" cy="99.5" r="99.5" transform="rotate(-180 102.5 99.5)" fill="black" fill-opacity="0.32"/>
</svg>
