<svg width="693" height="558" viewBox="0 0 693 558" fill="none" xmlns="http://www.w3.org/2000/svg">
<g clip-path="url(#clip0_1302_4216)">
<path d="M620.045 90.8382C576.95 59.5966 481.293 52.1998 447.355 158.242C458.518 163.637 468.21 171.656 475.611 181.496C509.609 77.7473 592.835 94.8263 619.996 125.633C647.673 157.027 630.238 209.639 601.317 213.258C574.891 216.567 549.873 205.868 546.813 182.168C542.018 145.046 584.975 131.159 613.002 157.582C591.016 111.094 529.835 128.51 528.221 171.304C526.556 215.474 570.391 253.803 619.108 233.115C676.863 208.587 669.607 129.196 622.131 92.4017C621.443 91.8687 620.747 91.3468 620.042 90.8364L620.045 90.8382ZM481.407 -10.9187C469.055 28.4449 445.955 29.1933 421.98 35.2844C431.514 7.33907 420.772 -18.2389 402.35 -31.7478C382.403 -46.3772 353.48 -46.8691 331.613 -20.8693C381.745 -46.3785 427.141 0.533488 384.2 56.4317L384.224 56.4498C381.293 59.696 378.427 63.4472 375.673 67.8116C383.917 69.2044 391.875 71.9519 399.222 75.9429C402.735 77.8529 406.061 79.9954 409.153 82.3626C411.614 84.2567 413.956 86.3007 416.166 88.4828C445.204 62.1629 498.642 80.9248 517.286 15.9649L481.407 -10.9187ZM366.968 -94.388C276.776 -126.555 220.447 -40.5651 246.122 33.3632C205.691 28.0296 158.291 61.4608 159.909 121.14C177.2 69.3884 224.58 47.5397 255.923 69.9172C275.791 67.9024 295.922 73.6873 311.741 86.1879C316.556 81.9446 321.878 78.3137 327.585 75.378C238.117 14.2464 263.745 -95.9556 366.968 -94.388ZM395.939 96.0101C394.131 94.7202 392.216 93.5219 390.238 92.4448C365.951 79.2665 336.709 85.4789 319.105 105.269L312.445 112.74L305.402 105.613C286.821 86.8044 257.1 82.3753 233.51 96.8374C209.921 111.299 200.382 139.776 208.719 164.867L211.874 174.348L202.243 176.919C176.791 183.781 158.308 206.731 159.034 234.216C159.761 261.689 179.581 284.09 205.407 289.484L215.231 291.536L212.528 301.228C205.442 326.722 216.683 354.824 241.075 368.062C265.241 381.175 294.097 375.095 311.756 355.528L318.427 348.145L325.439 355.206C344.018 374.017 373.72 378.471 397.311 364.008C420.902 349.545 430.412 321.054 422.077 295.96L418.917 286.434L428.617 283.877C454.239 277.165 473.008 253.913 472.279 226.291C471.548 198.649 451.583 175.801 425.679 170.539L415.845 168.554L418.457 158.875C422.348 144.47 420.778 129.676 414.185 116.99C410.192 109.312 404.566 102.602 397.702 97.3309C397.12 96.8822 396.544 96.4383 395.939 96.0101ZM530.334 252.692C561.68 309.461 517.49 367.744 453.017 336.99C449.59 334.37 445.976 332.004 442.204 329.911C440.073 340.322 435.818 350.181 429.704 358.872C473.047 395.252 455.757 459.371 393.571 478.867C466.235 483.902 498.308 420.173 478.831 370.956C543.462 383.451 590.721 302.866 530.334 252.692ZM372.494 145.036L352.953 181.029C356.548 183.752 359.896 186.89 362.886 190.438L374.705 183.217L384.553 199.243L372.696 206.515C374.454 210.733 375.68 215.057 376.457 219.439L417.45 218.35L417.943 237.158L376.907 238.252C376.328 242.761 375.26 247.194 373.724 251.473L386.077 258.175L377.12 274.696L364.74 267.974C362.012 271.568 358.895 274.849 355.446 277.758L376.935 312.77L360.882 322.598L339.41 287.56C335.258 289.301 330.926 290.578 326.493 291.367L326.86 305.518L308.052 306.011L307.681 291.816C303.199 291.251 298.791 290.202 294.535 288.688L274.907 324.852L258.385 315.894L277.996 279.755C274.411 277.054 271.135 273.966 268.226 270.548L256.224 277.909L246.395 261.856L258.334 254.526C256.563 250.337 255.266 245.962 254.465 241.485L213.427 242.579L212.935 223.772L253.972 222.678C254.53 218.215 255.566 213.825 257.062 209.583L244.852 202.951L253.829 186.404L265.989 192.999C268.702 189.396 271.821 186.066 275.353 183.071L253.971 148.179L269.997 138.331L291.38 173.223C295.58 171.459 299.963 170.168 304.448 169.373L304.089 155.581L322.896 155.088L323.261 168.925C327.752 169.497 332.168 170.552 336.432 172.071L355.971 136.077L372.494 145.036ZM340.577 195.187C326.894 185.367 308.203 184.131 292.875 193.528C288.024 196.481 283.805 200.364 280.461 204.953C277.116 209.543 274.712 214.749 273.388 220.272C272.063 225.794 271.844 231.524 272.743 237.131C273.641 242.739 275.64 248.113 278.624 252.945C281.577 257.796 285.46 262.015 290.05 265.359C294.64 268.704 299.846 271.107 305.369 272.432C310.891 273.756 316.621 273.975 322.229 273.076C327.836 272.178 333.211 270.179 338.043 267.195C342.894 264.242 347.113 260.359 350.458 255.769C353.802 251.179 356.206 245.973 357.53 240.45C358.855 234.928 359.074 229.198 358.175 223.59C357.276 217.983 355.277 212.608 352.292 207.776C349.267 202.84 345.283 198.559 340.577 195.187ZM115.688 178.738C73.4273 163.805 29.7726 221.056 64.5777 264.158C96.4112 303.577 136.131 304.356 165.396 289.419C157.885 282.616 151.768 274.331 147.407 265.052C127.508 274.295 103.356 273.904 84.1385 247.916C62.5971 218.776 83.3549 179.821 115.69 178.739L115.688 178.738ZM387.18 388.654C374.216 392.179 360.707 392.169 348.005 388.941C353.995 415.944 344.678 441.02 315.892 462.965L345.626 485.244C378.947 459.602 391.448 422.731 387.18 388.654Z" fill="white"/>
</g>
<defs>
<clipPath id="clip0_1302_4216">
<rect width="515.45" height="515.45" fill="white" transform="translate(309.174 -164.111) rotate(36.844)"/>
</clipPath>
</defs>
</svg>
