<svg width="39" height="39" viewBox="0 0 39 39" fill="none" xmlns="http://www.w3.org/2000/svg">
<path d="M30.3903 1.33295C26.3635 1.39648 20.2358 5.28856 22.992 13.2491C23.9127 13.0694 24.8634 13.1152 25.758 13.3753C23.1095 5.55074 28.9237 2.80894 31.966 3.442C35.0662 4.08718 36.3975 8.06388 34.8106 9.59516C33.3605 10.9944 31.3603 11.4817 30.0998 10.1855C28.1252 8.15529 30.0962 5.36549 32.992 5.69379C29.5516 3.87648 26.6372 7.70679 28.4811 10.3712C30.3843 13.1212 34.7775 13.4533 36.7887 9.99034C39.1729 5.88483 35.1316 1.40684 30.5876 1.33295C30.5218 1.33189 30.4559 1.33189 30.3901 1.33295H30.3903ZM17.3791 1.46153C18.4171 4.40542 17.0523 5.49879 15.877 6.95535C15.1864 4.83069 13.3755 3.76931 11.6471 3.78714C9.7756 3.80633 8.00202 5.08876 7.85759 7.65514C9.73569 3.83611 14.6128 4.61703 14.5488 9.9499H14.5511C14.521 10.2794 14.5176 10.6366 14.5488 11.0258C15.1112 10.7361 15.7177 10.5414 16.3437 10.4497C16.643 10.406 16.9416 10.3848 17.2363 10.3879C17.4712 10.3909 17.7058 10.4084 17.9386 10.4403C18.5027 7.52915 22.5896 6.24071 20.7712 1.46153H17.3791ZM6.66276 1.59955C-0.257758 3.74379 0.232865 11.5062 5.14161 14.8177C2.45152 16.3291 1.09818 20.5039 3.90382 24.0441C2.6028 20.126 4.48044 16.6534 7.39348 16.5864C8.50513 15.5629 9.98652 14.9999 11.5115 15.0391C11.6105 14.5637 11.768 14.1024 11.9804 13.6657C3.78956 14.0233 0.341486 6.18784 6.66276 1.59955ZM17.0553 11.8137C16.8873 11.8177 16.717 11.832 16.5483 11.8566C14.4799 12.1605 12.9911 13.8634 12.8231 15.8604L12.7588 16.6149L12.009 16.5029C10.0305 16.207 8.02997 17.2873 7.25774 19.2333C6.48559 21.1792 7.2 23.3362 8.84318 24.4772L9.46436 24.9081L8.99781 25.5008C7.76801 27.071 7.69017 29.2992 8.98105 30.9305C10.2716 32.561 12.488 33.0182 14.2965 32.173L14.9845 31.8516L15.2605 32.5611C15.9881 34.4262 17.9437 35.6178 20.0212 35.3127C22.0794 35.0103 23.5508 33.333 23.7323 31.347L23.8013 30.5973L24.5462 30.7067C26.5247 31.0027 28.5252 29.9249 29.2975 27.9788C30.0697 26.0328 29.3529 23.8762 27.7097 22.7349L27.0862 22.3015L27.5575 21.7066C28.8044 20.1377 28.8859 17.8782 27.5885 16.2387C26.2902 14.5982 24.0446 14.1205 22.2375 14.9772L21.5519 15.3032L21.271 14.5986C20.853 13.5499 20.0868 12.7253 19.112 12.2563C18.5219 11.9726 17.8768 11.8215 17.222 11.8137C17.1664 11.813 17.1114 11.8122 17.0553 11.8137ZM32.3016 15.2034C36.7752 17.2186 36.7438 22.7526 31.4447 23.8155C31.1183 23.8124 30.7921 23.8331 30.4688 23.8775C30.8121 24.6045 31.0017 25.3945 31.0258 26.1982C35.3008 26.4346 37.163 31.1014 34.2822 35.1032C38.9104 32.1113 37.961 26.7974 34.5488 24.701C39.029 22.5253 38.2345 15.5017 32.3016 15.2034ZM17.86 15.846L18.3098 18.9119C18.6511 18.9137 18.9961 18.9518 19.3381 19.031L19.7262 18.0576L21.0496 18.5812L20.6616 19.5594C20.9594 19.735 21.2298 19.9412 21.4757 20.1713L23.9084 18.2455L24.7915 19.362L22.3565 21.29C22.526 21.5893 22.6625 21.9062 22.7635 22.235L23.8156 22.0803L24.0228 23.4871L22.9682 23.6417C22.966 23.9831 22.9262 24.3232 22.8494 24.6558L25.739 25.8008L25.2129 27.1242L22.3231 25.9768C22.1507 26.2707 21.9463 26.5445 21.7137 26.7934L22.3779 27.6336L21.2615 28.5168L20.595 27.6741C20.2979 27.8432 19.9835 27.9797 19.6571 28.0812L20.1094 31.1614L18.7025 31.3686L18.2503 28.2906C17.9107 28.2897 17.5723 28.2514 17.2411 28.1764L16.8483 29.1666L15.5248 28.6406L15.9152 27.6551C15.6179 27.4817 15.3408 27.2757 15.0892 27.041L12.654 28.9691L11.7709 27.8526L14.2061 25.9246C14.0374 25.629 13.901 25.3162 13.7991 24.9915L12.7589 25.1438L12.5517 23.7346L13.5872 23.5823C13.588 23.2411 13.6258 22.8979 13.7038 22.5563L10.826 21.4137L11.3496 20.0903L14.2274 21.2329C14.4017 20.9355 14.6085 20.6585 14.844 20.4068L14.1965 19.588L15.3129 18.7049L15.9628 19.5261C16.2607 19.3571 16.5759 19.2206 16.9031 19.1191L16.4531 16.0532L17.86 15.846ZM18.2028 20.3307C16.9287 20.357 15.7409 21.1301 15.2392 22.3945C15.0794 22.7934 15.0001 23.2199 15.0058 23.6495C15.0116 24.0792 15.1022 24.5035 15.2726 24.898C15.4429 25.2924 15.6896 25.6493 15.9984 25.9481C16.3073 26.2468 16.6721 26.4816 17.072 26.6388C17.4709 26.7985 17.8975 26.8778 18.3271 26.872C18.7568 26.8663 19.181 26.7756 19.5755 26.6053C19.97 26.4349 20.3269 26.1882 20.6256 25.8794C20.9244 25.5705 21.1591 25.2057 21.3163 24.8058C21.4761 24.4069 21.5554 23.9803 21.5497 23.5507C21.5439 23.121 21.4533 22.6967 21.2829 22.3022C21.1125 21.9078 20.8658 21.5509 20.557 21.2521C20.2481 20.9534 19.8832 20.7186 19.4833 20.5615C19.0762 20.3998 18.6407 20.3214 18.2028 20.3307ZM3.83945 29.5379C0.60306 30.5511 0.557205 35.9982 4.62021 37.029C8.33618 37.9715 10.7766 36.2166 11.8709 33.9844C11.1074 33.9133 10.3611 33.6892 9.67612 33.3251C8.89056 34.7876 7.41039 35.8598 5.06772 35.1581C2.44132 34.371 1.93081 31.0705 3.8396 29.5379H3.83945ZM29.8022 29.9308C29.1771 30.7324 28.3587 31.3447 27.4431 31.7255C29.031 33.0888 29.6045 35.0299 28.8572 37.6647H31.6684C32.5226 34.6003 31.6067 31.8006 29.8022 29.9308Z" fill="#4E3600"/>
</svg>
