<svg width="39" height="39" viewBox="0 0 39 39" fill="none" xmlns="http://www.w3.org/2000/svg">
<path d="M23.1706 1.58276C18.1128 3.8127 22.5837 10.5794 18.0409 16.7482C18.041 16.749 18.0407 16.7497 18.0409 16.7505C18.3973 18.5707 18.1307 20.599 16.8983 21.428C17.3306 20.6017 17.2543 18.8975 16.853 17.3171C13.1447 8.87774 7.54041 12.9424 3.88248 3.73721C3.31058 12.5137 9.74345 11.8636 13.1301 20.4211C15.0558 20.7909 16.8069 22.0847 16.3603 24.1821C15.6945 22.0368 13.4138 21.3379 10.6737 21.9015C6.9372 23.0182 4.61266 25.8078 1.60692 24.8748C4.87492 28.4087 8.44487 24.9317 12.7493 26.0149C13.5263 25.5346 14.4071 25.2317 15.2154 25.2462C15.7392 25.2555 16.2318 25.399 16.6459 25.7127C15.3157 25.5142 12.6656 27.2676 11.7377 28.9167C10.8971 31.2835 12.1616 34.4272 9.90478 37.9168C14.8222 37.1946 14.1691 32.4239 17.2197 29.9213C16.7665 28.0942 17.1713 25.7894 18.7361 25.1296C18.1011 25.9281 18.0583 27.9447 18.4956 29.5833C19.8443 33.2815 23.7844 32.9623 26.2961 38.105C26.6099 34.3748 24.1803 31.7778 23.3895 28.9929C21.4456 28.0779 19.5478 26.0732 19.8927 24.3106C20.2798 25.5471 22.5595 27.2912 24.4844 27.9813C29.1259 29.2121 32.749 26.2926 37.8193 29.7784C34.5886 24.0385 30.376 26.4407 26.127 23.7418C24.2 24.243 21.8834 24.0449 20.9831 22.7064C21.769 23.1175 23.352 23.0716 24.8653 22.7206C24.8676 22.7199 24.8701 22.7192 24.8725 22.7183C32.3921 19.9006 31.9118 11.1557 37.667 10.5116C31.2469 7.80144 29.7908 17.0505 23.7323 18.3121C22.5656 20.2351 20.7425 21.6134 18.7121 21.6732C19.5855 21.0828 21.0618 19.8974 22.1446 18.4479C22.1381 18.4477 22.1319 18.4481 22.1256 18.4479C26.0002 13.4672 20.5301 8.19029 23.1704 1.58292L23.1706 1.58276ZM33.568 5.36774C30.7195 5.38168 27.7558 8.439 27.8003 12.4849C29.9148 7.82642 33.6022 6.97025 37.7026 8.58113C36.7289 6.31121 35.1659 5.3599 33.568 5.36774ZM16.3936 5.41291C16.353 5.41192 16.3113 5.41337 16.2699 5.4152C15.8904 5.43226 15.4718 5.56648 15.0177 5.84374C17.3158 7.37465 18.4529 10.169 17.429 14.3345C19.6421 11.0256 18.9497 5.4721 16.3936 5.41284L16.3936 5.41291ZM1.54248 11.3899V14.4749C4.52263 14.7296 7.37435 16.1586 9.90714 19.0642C8.90046 14.9552 5.20277 12.0772 1.54248 11.3899ZM11.2687 26.8457C6.63731 27.4755 6.66626 29.8379 2.18994 29.3332C5.96548 32.6252 8.01503 28.7004 11.2687 26.8457ZM32.0993 29.3547C30.4032 29.3699 28.1479 29.8416 25.9532 29.9688C28.914 31.4169 33.9193 29.6093 34.8033 32.2254C35.2235 29.9061 34.0214 29.3374 32.0992 29.3547H32.0993Z" fill="#4E3600"/>
</svg>
